<svg xmlns="http://www.w3.org/2000/svg" version="1.1" width="32" height="32" viewBox="-1 0 32 32">
    <a href="https://discord.gg/4wayq37">
        <path fill="#FFFFFF" d="M 26.484375 0 L 3.515625 0 C 1.578125 0 0 1.46875 0 3.292969 L 0 24.890625 C 0 26.710938 1.578125 28.183594 3.515625 28.183594 L 22.953125 28.183594 L 22.046875 25.226562 L 24.238281 27.128906 L 26.3125 28.917969 L 30 31.953125 L 30 3.292969 C 30 1.46875 28.421875 0 26.484375 0 Z M 19.867188 20.867188 C 19.867188 20.867188 19.25 20.179688 18.738281 19.570312 C 20.984375 18.980469 21.839844 17.671875 21.839844 17.671875 C 21.136719 18.101562 20.46875 18.40625 19.867188 18.613281 C 19.011719 18.949219 18.1875 19.171875 17.382812 19.300781 C 15.738281 19.585938 14.230469 19.507812 12.941406 19.285156 C 11.964844 19.109375 11.125 18.851562 10.421875 18.597656 C 10.027344 18.453125 9.601562 18.277344 9.171875 18.054688 C 9.121094 18.023438 9.070312 18.003906 9.015625 17.972656 C 8.984375 17.957031 8.964844 17.941406 8.949219 17.925781 C 8.640625 17.765625 8.46875 17.652344 8.46875 17.652344 C 8.46875 17.652344 9.292969 18.933594 11.46875 19.539062 C 10.953125 20.148438 10.320312 20.867188 10.320312 20.867188 C 6.53125 20.753906 5.089844 18.4375 5.089844 18.4375 C 5.089844 13.292969 7.558594 9.121094 7.558594 9.121094 C 10.027344 7.398438 12.378906 7.445312 12.378906 7.445312 L 12.546875 7.636719 C 9.460938 8.46875 8.039062 9.730469 8.039062 9.730469 C 8.039062 9.730469 8.417969 9.539062 9.050781 9.265625 C 10.886719 8.515625 12.34375 8.308594 12.941406 8.261719 C 13.046875 8.242188 13.132812 8.226562 13.234375 8.226562 C 14.28125 8.101562 15.460938 8.066406 16.695312 8.195312 C 18.324219 8.371094 20.074219 8.820312 21.855469 9.730469 C 21.855469 9.730469 20.503906 8.53125 17.589844 7.699219 L 17.828125 7.445312 C 17.828125 7.445312 20.175781 7.398438 22.644531 9.121094 C 22.644531 9.121094 25.113281 13.292969 25.113281 18.4375 C 25.113281 18.4375 23.65625 20.753906 19.867188 20.867188 Z M 11.898438 13.40625 C 10.921875 13.40625 10.148438 14.203125 10.148438 15.179688 C 10.148438 16.152344 10.9375 16.949219 11.898438 16.949219 C 12.875 16.949219 13.644531 16.152344 13.644531 15.179688 C 13.664062 14.203125 12.875 13.40625 11.898438 13.40625 M 18.152344 13.40625 C 17.175781 13.40625 16.40625 14.203125 16.40625 15.179688 C 16.40625 16.152344 17.195312 16.949219 18.152344 16.949219 C 19.132812 16.949219 19.902344 16.152344 19.902344 15.179688 C 19.902344 14.203125 19.132812 13.40625 18.152344 13.40625 "/>
    </a>
</svg>