<svg xmlns="http://www.w3.org/2000/svg" version="1.1" width="32" height="32" viewBox="0 0 32 32">
    <path fill="#FFFFFF" d="M 16 0 C 7.164062 0 0 7.164062 0 16 C 0 23.070312 4.585938 29.066406 10.941406 31.183594 C 11.742188 31.332031 12.035156 30.835938 12.035156 30.414062 C 12.035156 30.03125 12.019531 28.769531 12.011719 27.433594 C 7.5625 28.402344 6.621094 25.546875 6.621094 25.546875 C 5.894531 23.695312 4.847656 23.203125 4.847656 23.203125 C 3.394531 22.210938 4.957031 22.230469 4.957031 22.230469 C 6.5625 22.34375 7.410156 23.882812 7.410156 23.882812 C 8.835938 26.328125 11.152344 25.621094 12.066406 25.210938 C 12.207031 24.175781 12.621094 23.472656 13.082031 23.070312 C 9.527344 22.667969 5.789062 21.296875 5.789062 15.164062 C 5.789062 13.417969 6.414062 11.992188 7.4375 10.871094 C 7.273438 10.46875 6.726562 8.839844 7.59375 6.636719 C 7.59375 6.636719 8.9375 6.207031 11.996094 8.277344 C 13.273438 7.921875 14.640625 7.742188 16 7.738281 C 17.359375 7.742188 18.730469 7.921875 20.007812 8.277344 C 23.0625 6.207031 24.402344 6.636719 24.402344 6.636719 C 25.273438 8.839844 24.726562 10.46875 24.5625 10.871094 C 25.585938 11.992188 26.207031 13.417969 26.207031 15.164062 C 26.207031 21.308594 22.464844 22.664062 18.902344 23.058594 C 19.476562 23.554688 19.988281 24.53125 19.988281 26.023438 C 19.988281 28.164062 19.96875 29.886719 19.96875 30.414062 C 19.96875 30.839844 20.257812 31.335938 21.066406 31.179688 C 27.421875 29.0625 32 23.066406 32 16 C 32 7.164062 24.835938 0 16 0 Z M 5.992188 22.792969 C 5.957031 22.871094 5.832031 22.894531 5.71875 22.839844 C 5.601562 22.789062 5.539062 22.679688 5.574219 22.601562 C 5.609375 22.519531 5.734375 22.496094 5.851562 22.550781 C 5.964844 22.601562 6.03125 22.710938 5.992188 22.792969 Z M 6.78125 23.496094 C 6.703125 23.566406 6.554688 23.53125 6.453125 23.421875 C 6.347656 23.308594 6.328125 23.160156 6.40625 23.089844 C 6.484375 23.019531 6.628906 23.050781 6.734375 23.164062 C 6.839844 23.273438 6.859375 23.421875 6.78125 23.496094 Z M 7.320312 24.394531 C 7.222656 24.460938 7.0625 24.398438 6.960938 24.253906 C 6.863281 24.113281 6.863281 23.941406 6.964844 23.875 C 7.0625 23.804688 7.222656 23.867188 7.320312 24.007812 C 7.417969 24.152344 7.417969 24.324219 7.320312 24.394531 Z M 8.234375 25.433594 C 8.144531 25.53125 7.957031 25.503906 7.820312 25.371094 C 7.679688 25.242188 7.644531 25.0625 7.730469 24.964844 C 7.820312 24.867188 8.007812 24.894531 8.144531 25.023438 C 8.285156 25.152344 8.328125 25.339844 8.234375 25.433594 Z M 9.414062 25.785156 C 9.375 25.910156 9.195312 25.96875 9.011719 25.914062 C 8.832031 25.859375 8.714844 25.710938 8.75 25.585938 C 8.789062 25.460938 8.96875 25.402344 9.152344 25.457031 C 9.332031 25.511719 9.449219 25.65625 9.414062 25.785156 Z M 10.757812 25.933594 C 10.761719 26.066406 10.605469 26.175781 10.417969 26.179688 C 10.226562 26.183594 10.070312 26.074219 10.066406 25.945312 C 10.066406 25.8125 10.21875 25.703125 10.410156 25.699219 C 10.601562 25.695312 10.757812 25.804688 10.757812 25.933594 Z M 12.074219 25.882812 C 12.097656 26.011719 11.964844 26.144531 11.777344 26.179688 C 11.589844 26.214844 11.417969 26.132812 11.394531 26.007812 C 11.371094 25.875 11.507812 25.742188 11.691406 25.707031 C 11.882812 25.675781 12.050781 25.753906 12.074219 25.882812 Z M 12.074219 25.882812 "/>
</svg>
